<svg xmlns="http://www.w3.org/2000/svg" viewBox="0 0 940 340" font-family="Segoe UI, Arial, sans-serif">
  <rect width="940" height="340" rx="14" fill="#0e1015"/>
  <text x="470" y="32" text-anchor="middle" fill="#e8eaed" font-size="17" font-weight="600">Warum SegBot? Vom starren Programm zur automatischen Fehlererkennung</text>
  
  <g transform="translate(20 0)">
    <rect x="18" y="52" width="422" height="252" rx="12" fill="#151920" stroke="#2c313a" stroke-width="1.5"/>
    <text x="229" y="80" text-anchor="middle" fill="#e8eaed" font-size="14.5" font-weight="600">Bisher: starre Bahn</text>
    <text x="229" y="290" text-anchor="middle" fill="#8b94a5" font-size="11.5">faehrt immer dieselbe Bahn — ob Fehler da sind oder nicht</text>
    <g transform="translate(229 195)"><g transform="translate(-45 62) scale(0.42 0.3024)"><path d="M 99.4 -244.3 L 78.5 -248.3 L 68.4 -254.5 L 14.4 -248.8 L -52.6 -210.6 L -66.7 -196.5 L -74.0 -184.1 L -79.1 -182.4 L -89.8 -162.7 L -103.3 -152.6 L -105.0 -114.9 L -96.0 -96.8 L -83.0 -89.5 L -81.4 -73.8 L -85.9 -69.2 L -81.4 -44.5 L -70.7 -32.1 L -63.3 -27.6 L -46.4 -28.2 L -35.2 -22.5 L -8.7 -22.5 L 2.0 -10.7 L 5.3 -2.3 L 15.5 0.0 L 40.3 -7.9 L 68.4 -21.4 L 89.2 -41.1 L 87.5 -53.5 L 90.9 -59.7 L 92.6 -82.2 L 84.7 -100.8 L 75.7 -110.3 L 61.6 -118.8 L 61.6 -125.0 L 84.2 -137.4 L 99.4 -177.3 L 103.9 -198.7 L 101.6 -212.8 L 105.0 -225.2 L 104.4 -235.3 Z" fill="#1f7a44" stroke="#57d987" stroke-width="1.2" vector-effect="non-scaling-stroke"/></g><circle cx="-52" cy="18" r="7" fill="#ef4444"/><circle cx="38" cy="-24" r="9" fill="#ef4444"/><path d="M -95 -50 H 95 M 95 -25 H -95 M -95 0 H 95 M 95 25 H -95 M -95 50 H 95" stroke="#5c6570" stroke-width="1.6" fill="none" stroke-dasharray="4 5" opacity="0.8"/><circle r="6" fill="#c3c9d2"><animateMotion path="M -95 -50 H 95 L 95 -25 H -95 L -95 0 H 95 L 95 25 H -95 L -95 50 H 95" dur="10s" repeatCount="indefinite"/></circle><circle r="10" fill="none" stroke="#c3c9d2" stroke-width="1.5" opacity="0.5"><animateMotion path="M -95 -50 H 95 L 95 -25 H -95 L -95 0 H 95 L 95 25 H -95 L -95 50 H 95" dur="10s" repeatCount="indefinite"/></circle></g>
  </g>
  
  <g transform="translate(480 0)">
    <rect x="18" y="52" width="422" height="252" rx="12" fill="#151920" stroke="#2c313a" stroke-width="1.5"/>
    <text x="229" y="80" text-anchor="middle" fill="#e8eaed" font-size="14.5" font-weight="600">SegBot: erst erkennen, dann bearbeiten</text>
    <text x="229" y="290" text-anchor="middle" fill="#8b94a5" font-size="11.5">Scan findet die Befunde — bearbeitet wird nur dort</text>
    <g transform="translate(229 195)"><g transform="translate(-45 62) scale(0.42 0.3024)"><path d="M 99.4 -244.3 L 78.5 -248.3 L 68.4 -254.5 L 14.4 -248.8 L -52.6 -210.6 L -66.7 -196.5 L -74.0 -184.1 L -79.1 -182.4 L -89.8 -162.7 L -103.3 -152.6 L -105.0 -114.9 L -96.0 -96.8 L -83.0 -89.5 L -81.4 -73.8 L -85.9 -69.2 L -81.4 -44.5 L -70.7 -32.1 L -63.3 -27.6 L -46.4 -28.2 L -35.2 -22.5 L -8.7 -22.5 L 2.0 -10.7 L 5.3 -2.3 L 15.5 0.0 L 40.3 -7.9 L 68.4 -21.4 L 89.2 -41.1 L 87.5 -53.5 L 90.9 -59.7 L 92.6 -82.2 L 84.7 -100.8 L 75.7 -110.3 L 61.6 -118.8 L 61.6 -125.0 L 84.2 -137.4 L 99.4 -177.3 L 103.9 -198.7 L 101.6 -212.8 L 105.0 -225.2 L 104.4 -235.3 Z" fill="#1f7a44" stroke="#57d987" stroke-width="1.2" vector-effect="non-scaling-stroke"/></g><circle cx="-52" cy="18" r="7" fill="#ef4444"/><circle cx="38" cy="-24" r="9" fill="#ef4444"/><line x1="-110" y1="-60" x2="-110" y2="60" stroke="#7cc0ff" stroke-width="3" opacity="0"><animate attributeName="opacity" values="0;0.9;0.9;0" keyTimes="0;0.03;0.2;0.24" dur="10s" repeatCount="indefinite"/><animate attributeName="x1" values="-110;110;110" keyTimes="0;0.2;1" dur="10s" repeatCount="indefinite"/><animate attributeName="x2" values="-110;110;110" keyTimes="0;0.2;1" dur="10s" repeatCount="indefinite"/></line><g opacity="0"><animate attributeName="opacity" values="0;0;1;1" keyTimes="0;0.16;0.24;1" dur="10s" repeatCount="indefinite"/><circle cx="-52" cy="18" r="13" fill="none" stroke="#ff7a18" stroke-width="2"><animate attributeName="r" values="10;16;10" dur="1.6s" repeatCount="indefinite"/></circle><circle cx="38" cy="-24" r="15" fill="none" stroke="#ff7a18" stroke-width="2"><animate attributeName="r" values="12;18;12" dur="1.6s" repeatCount="indefinite"/></circle></g><line x1="-66" y1="18" x2="-38" y2="18" stroke="#ff7a18" stroke-width="5" stroke-linecap="round" stroke-dasharray="28" stroke-dashoffset="28"><animate attributeName="stroke-dashoffset" values="28;28;0;0" keyTimes="0;0.38;0.5;1" dur="10s" repeatCount="indefinite"/></line><line x1="24" y1="-24" x2="52" y2="-24" stroke="#ff7a18" stroke-width="5" stroke-linecap="round" stroke-dasharray="28" stroke-dashoffset="28"><animate attributeName="stroke-dashoffset" values="28;28;0;0" keyTimes="0;0.62;0.74;1" dur="10s" repeatCount="indefinite"/></line><g opacity="0"><animate attributeName="opacity" values="0;0;1;1;0" keyTimes="0;0.3;0.34;0.9;1" dur="10s" repeatCount="indefinite"/><circle r="6" fill="#ff9b4d"><animateMotion path="M -95 60 L -95 60 L -66 18 H -38 L 24 -24 H 52 L 95 60" keyTimes="0;0.3;0.38;0.5;0.62;0.74;1" keyPoints="0;0;0.14;0.34;0.62;0.82;1" calcMode="linear" dur="10s" repeatCount="indefinite"/></circle></g></g>
  </g>
  <text x="470" y="326" text-anchor="middle" fill="#8b94a5" font-size="12">gleiches Bauteil, gleiche Zeitachse — links Vollprogramm, rechts nur die zwei Befunde</text>
</svg>
